<?xml version="1.0" standalone="no"?><!DOCTYPE svg PUBLIC "-//W3C//DTD SVG 1.1//EN" "http://www.w3.org/Graphics/SVG/1.1/DTD/svg11.dtd"><svg t="1728769819125" class="icon" viewBox="0 0 1024 1024" version="1.1" xmlns="http://www.w3.org/2000/svg" p-id="5197" xmlns:xlink="http://www.w3.org/1999/xlink" width="200" height="200"><path d="M384 64v64h256V64c0-35.34 28.6-64 64-64s64 28.66 64 64v64h96c53 0 96 42.98 96 96v160H64v-160c0-53.02 42.98-96 96-96h96V64c0-35.34 28.6-64 64-64s64 28.66 64 64z m297.6 576.8l-29.8 29.8-106.6-108.4 29.8-28.2c29.4-29.4 77.2-29.4 106.6 0 29.4 29.6 29.4 77.2 0 106.8z m-325.4 112.2l142-143.8 108.4 106.6-143.8 144c-8.2 6.4-18.6 14-29.8 16.8l-73.2 18.2c-11 2.8-22.4-0.4-30.4-8.4-8-7.8-11.2-19.4-8.4-30.4l18.2-73.2c2.8-11.2 7-21.6 17-29.8z" p-id="5198" fill="#457fca"></path><path d="M960 928c0 53-43 96-96 96H160c-53.02 0-96-43-96-96V384h896v544zM681.6 534c-29.4-29.4-77.2-29.4-106.6 0l-29.8 28.2 106.6 108.4 29.8-29.8c29.4-29.6 29.4-77.2 0-106.8zM339.2 782.8l-18.2 73.2c-2.8 11 0.4 22.6 8.4 30.4 8 8 19.4 11.2 30.4 8.4l73.2-18.2c11.2-2.8 21.6-10.4 29.8-16.8l143.8-144-108.4-106.6-142 143.8c-10 8.2-14.2 18.6-17 29.8z" opacity=".4" p-id="5199" fill="#457fca"></path></svg>